<svg xmlns="http://www.w3.org/2000/svg" xmlns:xlink="http://www.w3.org/1999/xlink" width="500" zoomAndPan="magnify" viewBox="0 0 375 374.999991" height="500" preserveAspectRatio="xMidYMid meet" version="1.0"><path stroke-linecap="butt" transform="matrix(0.75, 0, 0, 0.75, -7.448789, -20.999999)" fill="none" stroke-linejoin="miter" d="M 123.697351 118.171881 L 195.561939 118.171881 C 200.864023 118.171881 203.515065 120.822923 203.515065 126.125006 L 203.515065 162.687509 C 203.515065 167.989593 200.864023 170.640634 195.561939 170.640634 L 134.754644 170.640634 C 124.212976 170.640634 118.942143 175.942718 118.942143 186.546885 L 118.942143 231.453138 C 118.942143 241.734389 124.212976 246.875014 134.754644 246.875014 L 171.702563 246.875014 L 171.702563 230.968763 C 171.702563 225.72918 174.353605 223.114596 179.655688 223.114596 L 217.384857 223.114596 C 222.686941 223.114596 225.337983 225.72918 225.337983 230.968763 L 225.337983 246.875014 L 242.020276 246.875014 C 247.322359 246.875014 249.973401 249.526056 249.973401 254.82814 L 249.973401 291.390642 C 249.973401 296.692726 247.322359 299.343768 242.020276 299.343768 L 225.337983 299.343768 L 225.337983 428.046901 C 225.337983 433.348985 222.686941 436.000027 217.384857 436.000027 L 123.697351 436.000027 C 105.140058 436.000027 90.879641 431.119818 80.926515 421.354192 C 71.030681 411.526067 66.087972 397.333358 66.087972 378.776065 L 66.087972 301.770851 C 66.087972 294.333351 68.447348 288.031267 73.166098 282.859392 C 77.952557 277.682308 83.931724 274.58335 91.108807 273.546891 L 91.108807 272.770849 C 83.931724 271.411474 77.952557 268.213557 73.166098 263.166682 C 68.447348 258.125015 66.087972 251.916681 66.087972 244.546889 L 66.087972 175.395843 C 66.087972 156.578133 71.030681 142.354174 80.926515 132.718757 C 90.879641 123.02084 105.140058 118.171881 123.697351 118.171881 Z M 171.702563 299.343768 L 134.754644 299.343768 C 124.212976 299.343768 118.942143 304.645851 118.942143 315.250019 L 118.942143 367.625022 C 118.942143 378.22919 124.212976 383.531273 134.754644 383.531273 L 171.702563 383.531273 Z M 327.489031 118.171881 L 399.358828 118.171881 C 404.660911 118.171881 407.311953 120.822923 407.311953 126.125006 L 407.311953 162.687509 C 407.311953 167.989593 404.660911 170.640634 399.358828 170.640634 L 338.546324 170.640634 C 328.004656 170.640634 322.739031 175.942718 322.739031 186.546885 L 322.739031 231.453138 C 322.739031 241.734389 328.004656 246.875014 338.546324 246.875014 L 375.499451 246.875014 L 375.499451 230.968763 C 375.499451 225.72918 378.150493 223.114596 383.452577 223.114596 L 421.181746 223.114596 C 426.483829 223.114596 429.129663 225.72918 429.129663 230.968763 L 429.129663 246.875014 L 445.811956 246.875014 C 451.114039 246.875014 453.765081 249.526056 453.765081 254.82814 L 453.765081 291.390642 C 453.765081 296.692726 451.114039 299.343768 445.811956 299.343768 L 429.129663 299.343768 L 429.129663 428.046901 C 429.129663 433.348985 426.483829 436.000027 421.181746 436.000027 L 327.489031 436.000027 C 308.931738 436.000027 294.676529 431.119818 284.718195 421.354192 C 274.82757 411.526067 269.879653 397.333358 269.879653 378.776065 L 269.879653 301.770851 C 269.879653 294.333351 272.239028 288.031267 276.957778 282.859392 C 281.744237 277.682308 287.723404 274.58335 294.900488 273.546891 L 294.900488 272.770849 C 287.723404 271.411474 281.744237 268.213557 276.957778 263.166682 C 272.239028 258.125015 269.879653 251.916681 269.879653 244.546889 L 269.879653 175.395843 C 269.879653 156.578133 274.82757 142.354174 284.718195 132.718757 C 294.676529 123.02084 308.931738 118.171881 327.489031 118.171881 Z M 375.499451 299.343768 L 338.546324 299.343768 C 328.004656 299.343768 322.739031 304.645851 322.739031 315.250019 L 322.739031 367.625022 C 322.739031 378.22919 328.004656 383.531273 338.546324 383.531273 L 375.499451 383.531273 Z M 375.499451 299.343768 " stroke="#43394e" stroke-width="4.965862" stroke-opacity="1" stroke-miterlimit="4"/></svg>