<svg xmlns="http://www.w3.org/2000/svg" xmlns:xlink="http://www.w3.org/1999/xlink" width="500" zoomAndPan="magnify" viewBox="0 0 375 374.999991" height="500" preserveAspectRatio="xMidYMid meet" version="1.0"><path stroke-linecap="butt" transform="matrix(0.75, 0, 0, 0.75, -7.448789, -20.999999)" fill="none" stroke-linejoin="miter" d="M 254.525485 347.395854 C 254.525485 371.838564 247.348401 391.718774 232.994233 407.041692 C 218.640066 422.369818 197.629648 431.385443 169.952563 434.104193 L 169.952563 475.614613 L 126.697351 475.614613 L 126.697351 433.52086 C 104.712975 430.807318 86.186932 424.791693 71.124431 415.4844 C 56.056722 406.1719 44.905679 395.244816 37.660887 382.69794 L 66.759848 347.203146 L 71.608806 347.203146 C 78.072348 356.640647 85.931724 364.72398 95.176516 371.447939 C 104.421308 378.171898 114.931726 382.958357 126.697351 385.802107 L 126.697351 304.916685 L 121.848393 303.755226 C 96.244224 297.932309 77.233807 288.557309 64.817139 275.625016 C 52.40568 262.692724 46.197346 245.494806 46.197346 224.031263 C 46.197346 209.802095 49.332763 197.098969 55.603597 185.911469 C 61.879639 174.729176 71.056723 165.578134 83.150474 158.46355 C 95.239016 151.354175 109.754642 146.760424 126.697351 144.692716 L 126.697351 102.79688 L 169.952563 102.79688 L 169.952563 144.307299 C 186.11923 145.984383 200.244231 149.609383 212.337982 155.166675 C 224.426525 160.729175 234.936942 168.489593 243.858817 178.442718 L 217.671316 214.328137 L 212.822357 214.328137 C 201.31194 202.432303 187.02548 194.739594 169.952563 191.244802 L 169.952563 263.989599 L 175.968188 265.343766 C 203.770273 271.291683 223.811941 280.9271 236.0984 294.250017 C 248.384859 307.567727 254.525485 325.28127 254.525485 347.395854 Z M 98.379641 221.895846 C 98.379641 229.656263 100.50985 236.088555 104.780683 241.197931 C 109.046309 246.302098 116.353601 250.536473 126.697351 253.901057 L 126.697351 191.635427 C 117.259851 193.833344 110.176517 197.583344 105.457767 202.885428 C 100.739016 208.187512 98.379641 214.526054 98.379641 221.895846 Z M 169.952563 386.968774 C 180.041105 384.770857 187.572355 380.500023 192.551522 374.166689 C 197.530689 367.828147 200.020273 360.135438 200.020273 351.083355 C 200.020273 342.286479 197.754648 335.046895 193.228606 329.359395 C 188.702564 323.666686 180.947355 319.010436 169.952563 315.390644 Z M 478.296333 347.395854 C 478.296333 371.838564 471.119249 391.718774 456.765081 407.041692 C 442.410914 422.369818 421.395287 431.385443 393.723411 434.104193 L 393.723411 475.614613 L 350.468199 475.614613 L 350.468199 433.52086 C 328.483823 430.807318 309.95778 424.791693 294.890071 415.4844 C 279.82757 406.1719 268.671319 395.244816 261.431735 382.69794 L 290.530696 347.203146 L 295.379654 347.203146 C 301.843196 356.640647 309.697363 364.72398 318.947364 371.447939 C 328.192156 378.171898 338.697365 382.958357 350.468199 385.802107 L 350.468199 304.916685 L 345.619241 303.755226 C 320.009864 297.932309 301.004655 288.557309 288.587987 275.625016 C 276.176528 262.692724 269.968194 245.494806 269.968194 224.031263 C 269.968194 209.802095 273.103611 197.098969 279.374445 185.911469 C 285.645279 174.729176 294.827571 165.578134 306.921322 158.46355 C 319.009864 151.354175 333.52549 146.760424 350.468199 144.692716 L 350.468199 102.79688 L 393.723411 102.79688 L 393.723411 144.307299 C 409.88487 145.984383 424.015079 149.609383 436.103622 155.166675 C 448.197373 160.729175 458.702582 168.489593 467.624457 178.442718 L 441.442164 214.328137 L 436.593205 214.328137 C 425.082788 202.432303 410.79112 194.739594 393.723411 191.244802 L 393.723411 263.989599 L 399.733828 265.343766 C 427.541121 271.291683 447.582789 280.9271 459.869248 294.250017 C 472.150499 307.567727 478.296333 325.28127 478.296333 347.395854 Z M 322.145281 221.895846 C 322.145281 229.656263 324.280698 236.088555 328.546323 241.197931 C 332.817157 246.302098 340.11924 250.536473 350.468199 253.901057 L 350.468199 191.635427 C 341.025491 193.833344 333.947365 197.583344 329.228615 202.885428 C 324.504656 208.187512 322.145281 214.526054 322.145281 221.895846 Z M 393.723411 386.968774 C 403.806745 384.770857 411.343203 380.500023 416.32237 374.166689 C 421.301537 367.828147 423.791121 360.135438 423.791121 351.083355 C 423.791121 342.286479 421.525496 335.046895 416.999454 329.359395 C 412.473412 323.666686 404.712995 319.010436 393.723411 315.390644 Z M 393.723411 386.968774 " stroke="#43394e" stroke-width="4.965862" stroke-opacity="1" stroke-miterlimit="4"/></svg>