<svg xmlns="http://www.w3.org/2000/svg" xmlns:xlink="http://www.w3.org/1999/xlink" width="500" zoomAndPan="magnify" viewBox="0 0 375 374.999991" height="500" preserveAspectRatio="xMidYMid meet" version="1.0"><path stroke-linecap="butt" transform="matrix(0.75, 0, 0, 0.75, -7.448789, -20.999999)" fill="none" stroke-linejoin="miter" d="M 179.796313 336.921895 L 131.301518 336.921895 L 127.42131 147.411466 L 183.671314 147.411466 Z M 155.546312 432.937527 C 148.822353 432.937527 142.905686 431.58336 137.796311 428.86461 C 132.692144 426.151068 128.744227 422.401068 125.968185 417.614609 C 123.186935 412.833359 121.796309 407.463567 121.796309 401.51565 C 121.796309 395.437524 123.186935 389.973982 125.968185 385.125023 C 128.744227 380.276065 132.692144 376.494815 137.796311 373.776064 C 142.905686 371.062523 148.822353 369.703147 155.546312 369.703147 C 165.634854 369.703147 173.749438 372.677106 179.890063 378.625023 C 186.035897 384.57294 189.103606 392.140649 189.103606 401.322941 C 189.103606 410.505233 186.035897 418.067734 179.890063 424.015651 C 173.749438 429.963568 165.634854 432.937527 155.546312 432.937527 Z M 284.270278 336.921895 L 235.775484 336.921895 L 231.895275 147.411466 L 288.145279 147.411466 Z M 260.020277 432.937527 C 253.296318 432.937527 247.379651 431.58336 242.270276 428.86461 C 237.166109 426.151068 233.218192 422.401068 230.44215 417.614609 C 227.6609 412.833359 226.270275 407.463567 226.270275 401.51565 C 226.270275 395.437524 227.6609 389.973982 230.44215 385.125023 C 233.218192 380.276065 237.166109 376.494815 242.270276 373.776064 C 247.379651 371.062523 253.296318 369.703147 260.020277 369.703147 C 270.108819 369.703147 278.223403 372.677106 284.364028 378.625023 C 290.509862 384.57294 293.577571 392.140649 293.577571 401.322941 C 293.577571 410.505233 290.509862 418.067734 284.364028 424.015651 C 278.223403 429.963568 270.108819 432.937527 260.020277 432.937527 Z M 388.744244 336.921895 L 340.249449 336.921895 L 336.36924 147.411466 L 392.624452 147.411466 Z M 364.494242 432.937527 C 357.770283 432.937527 351.853616 431.58336 346.749449 428.86461 C 341.640074 426.151068 337.697365 422.401068 334.916115 417.614609 C 332.134865 412.833359 330.74424 407.463567 330.74424 401.51565 C 330.74424 395.437524 332.134865 389.973982 334.916115 385.125023 C 337.697365 380.276065 341.640074 376.494815 346.749449 373.776064 C 351.853616 371.062523 357.770283 369.703147 364.494242 369.703147 C 374.582784 369.703147 382.697368 372.677106 388.837994 378.625023 C 394.983827 384.57294 398.051536 392.140649 398.051536 401.322941 C 398.051536 410.505233 394.983827 418.067734 388.837994 424.015651 C 382.697368 429.963568 374.582784 432.937527 364.494242 432.937527 Z M 364.494242 432.937527 " stroke="#43394e" stroke-width="4.965862" stroke-opacity="1" stroke-miterlimit="4"/></svg>