<svg xmlns="http://www.w3.org/2000/svg" xmlns:xlink="http://www.w3.org/1999/xlink" width="500" zoomAndPan="magnify" viewBox="0 0 375 374.999991" height="500" preserveAspectRatio="xMidYMid meet" version="1.0"><path stroke-linecap="butt" transform="matrix(0.75, 0, 0, 0.75, -8.758855, 39.975232)" fill="none" stroke-linejoin="miter" d="M 216.412863 148.642409 L 253.475365 148.642409 C 255.61599 148.642409 257.157657 149.236159 258.110782 150.428867 C 259.105574 151.569492 259.131616 153.204909 258.178491 155.345534 L 250.839948 175.444494 C 249.699323 178.579911 247.464948 180.147619 244.136823 180.147619 L 204.152445 180.147619 L 187.829528 223.345539 L 231.876405 223.345539 C 234.017031 223.345539 235.558697 223.939289 236.511822 225.126789 C 237.511822 226.267414 237.532656 227.908039 236.584739 230.043456 L 229.240989 250.215332 C 228.100364 253.355957 225.865988 254.923666 222.543072 254.923666 L 175.85036 254.923666 L 152.756609 315.293462 C 151.615984 318.434087 149.386817 320.001795 146.058691 320.001795 L 118.615981 320.283045 C 113.959731 320.283045 112.392023 318.053878 113.912856 313.585128 L 136.433691 254.923666 L 96.730563 254.923666 L 73.636812 315.293462 C 72.496187 318.434087 70.26702 320.001795 66.938895 320.001795 L 39.496184 320.283045 C 34.839934 320.283045 33.272226 318.053878 34.793059 313.585128 L 57.313894 254.923666 L 19.964933 254.923666 C 17.777433 254.923666 16.2566 254.283041 15.402433 252.996582 C 14.548266 251.715332 14.501391 250.100749 15.261808 248.152832 L 22.532642 228.048664 C 23.720142 224.913247 25.97535 223.345539 29.303475 223.345539 L 69.287853 223.345539 L 85.897229 180.147619 L 41.563893 180.147619 C 39.423268 180.147619 37.902434 179.533036 37.001393 178.298661 C 36.147226 177.012202 36.100351 175.397619 36.860768 173.449702 L 44.126393 153.277826 C 45.319102 150.189284 47.57431 148.642409 50.902435 148.642409 L 97.871188 148.642409 L 119.756606 91.121572 C 120.944106 87.986155 123.199315 86.418447 126.52744 86.418447 L 153.615984 86.418447 C 158.319109 86.418447 159.886817 88.652822 158.319109 93.116364 L 137.293066 148.642409 L 176.990985 148.642409 L 198.876403 91.121572 C 200.063903 87.986155 202.319112 86.418447 205.647237 86.418447 L 232.803489 86.418447 C 237.459739 86.418447 239.006614 88.652822 237.438906 93.116364 Z M 165.017026 180.147619 L 125.032648 180.147619 L 108.709731 223.345539 L 148.412858 223.345539 Z M 466.329546 148.642409 L 503.392048 148.642409 C 505.532673 148.642409 507.07434 149.236159 508.027465 150.428867 C 509.022257 151.569492 509.048299 153.204909 508.095174 155.345534 L 500.756631 175.444494 C 499.616006 178.579911 497.381631 180.147619 494.053506 180.147619 L 454.069128 180.147619 L 437.746211 223.345539 L 481.793089 223.345539 C 483.933714 223.345539 485.480589 223.939289 486.428505 225.126789 C 487.428506 226.267414 487.449339 227.908039 486.501422 230.043456 L 479.157672 250.215332 C 478.017047 253.355957 475.782671 254.923666 472.459755 254.923666 L 425.772252 254.923666 L 402.673292 315.293462 C 401.532667 318.434087 399.3035 320.001795 395.975375 320.001795 L 368.532664 320.283045 C 363.876414 320.283045 362.308706 318.053878 363.829539 313.585128 L 386.350374 254.923666 L 346.652455 254.923666 L 323.553495 315.293462 C 322.41287 318.434087 320.183703 320.001795 316.855578 320.001795 L 289.412868 320.283045 C 284.756617 320.283045 283.188909 318.053878 284.709742 313.585128 L 307.230577 254.923666 L 269.881616 254.923666 C 267.694116 254.923666 266.173283 254.283041 265.319116 252.996582 C 264.464949 251.715332 264.418074 250.100749 265.178491 248.152832 L 272.449325 228.048664 C 273.636825 224.913247 275.892033 223.345539 279.220159 223.345539 L 319.209745 223.345539 L 335.813912 180.147619 L 291.480576 180.147619 C 289.339951 180.147619 287.819117 179.533036 286.918076 178.298661 C 286.063909 177.012202 286.017034 175.397619 286.777451 173.449702 L 294.048285 153.277826 C 295.235785 150.189284 297.490993 148.642409 300.819118 148.642409 L 347.787871 148.642409 L 369.673289 91.121572 C 370.86079 87.986155 373.115998 86.418447 376.444123 86.418447 L 403.532667 86.418447 C 408.235792 86.418447 409.8035 88.652822 408.235792 93.116364 L 387.209749 148.642409 L 426.912877 148.642409 L 448.793086 91.121572 C 449.980586 87.986155 452.235795 86.418447 455.56392 86.418447 L 482.720172 86.418447 C 487.381631 86.418447 488.923297 88.652822 487.355589 93.116364 Z M 414.933709 180.147619 L 374.949332 180.147619 L 358.626414 223.345539 L 398.329541 223.345539 Z M 414.933709 180.147619 " stroke="#43394e" stroke-width="3.649525" stroke-opacity="1" stroke-miterlimit="4"/></svg>